HIERARCHY
ROOT Hips
{
    OFFSET 0.0 0.0 0.0
    CHANNELS 6 Xposition Yposition Zposition Zrotation Xrotation Yrotation
    JOINT LeftUpLeg
    {
        OFFSET 13.449277509082648 0.0 0.0
        CHANNELS 3 Zrotation Xrotation Yrotation
        JOINT LeftLeg
        {
            OFFSET 0.0 0.0 -55.79298083709959
            CHANNELS 3 Zrotation Xrotation Yrotation
            JOINT LeftFoot
            {
                OFFSET 0.0 0.0 -44.181066953013115
                CHANNELS 3 Zrotation Xrotation Yrotation
                JOINT LeftToeBase
                {
                    OFFSET 0.0 -11.533250606476305 0.0
                    CHANNELS 3 Zrotation Xrotation Yrotation
                    End Site
                    {
                        OFFSET 0 0 0
                    }
                }
            }
        }
    }
    JOINT RightUpLeg
    {
        OFFSET -13.449277509082648 0.0 0.0
        CHANNELS 3 Zrotation Xrotation Yrotation
        JOINT RightLeg
        {
            OFFSET 0.0 0.0 -55.79298083709959
            CHANNELS 3 Zrotation Xrotation Yrotation
            JOINT RightFoot
            {
                OFFSET 0.0 0.0 -44.181066953013115
                CHANNELS 3 Zrotation Xrotation Yrotation
                JOINT RightToeBase
                {
                    OFFSET 0.0 -11.533250606476305 0.0
                    CHANNELS 3 Zrotation Xrotation Yrotation
                    End Site
                    {
                        OFFSET 0 0 0
                    }
                }
            }
        }
    }
    JOINT Spine
    {
        OFFSET 0.0 0.0 11.7291720975437
        CHANNELS 3 Zrotation Xrotation Yrotation
        JOINT Spine1
        {
            OFFSET 0.0 0.0 11.689497159791538
            CHANNELS 3 Zrotation Xrotation Yrotation
            JOINT Spine2
            {
                OFFSET 0.0 0.0 11.689497159791538
                CHANNELS 3 Zrotation Xrotation Yrotation
                JOINT Spine3
                {
                    OFFSET 0.0 0.0 11.68949715979153
                    CHANNELS 3 Zrotation Xrotation Yrotation
                    JOINT Spine4
                    {
                        OFFSET 0.0 0.0 11.689497159791541
                        CHANNELS 3 Zrotation Xrotation Yrotation
                        JOINT RightShoulder
                        {
                            OFFSET -22.810108840285444 0.0 0.0
                            CHANNELS 3 Zrotation Xrotation Yrotation
                            JOINT RightArm
                            {
                                OFFSET -36.23480732729567 0.0 0.0
                                CHANNELS 3 Zrotation Xrotation Yrotation
                                JOINT RightForeArm
                                {
                                    OFFSET -34.01660181389912 0.0 0.0
                                    CHANNELS 3 Zrotation Xrotation Yrotation
                                    JOINT RightHand
                                    {
                                        OFFSET -11.380147708713583 0.0 0.0
                                        CHANNELS 3 Zrotation Xrotation Yrotation
                                        End Site
                                        {
                                            OFFSET 0 0 0
                                        }
                                    }
                                }
                            }
                        }
                        JOINT LeftShoulder
                        {
                            OFFSET 22.810108840285444 0.0 0.0
                            CHANNELS 3 Zrotation Xrotation Yrotation
                            JOINT LeftArm
                            {
                                OFFSET 36.23480732729567 0.0 0.0
                                CHANNELS 3 Zrotation Xrotation Yrotation
                                JOINT LeftForeArm
                                {
                                    OFFSET 34.01660181389912 0.0 0.0
                                    CHANNELS 3 Zrotation Xrotation Yrotation
                                    JOINT LeftHand
                                    {
                                        OFFSET 11.380147708713583 0.0 0.0
                                        CHANNELS 3 Zrotation Xrotation Yrotation
                                        End Site
                                        {
                                            OFFSET 0 0 0
                                        }
                                    }
                                }
                            }
                        }
                        JOINT Neck
                        {
                            OFFSET 0.0 0.0 11.689497155673786
                            CHANNELS 3 Zrotation Xrotation Yrotation
                            JOINT Head
                            {
                                OFFSET 0.0 0.0 25.756697081360144
                                CHANNELS 3 Zrotation Xrotation Yrotation
                                End Site
                                {
                                    OFFSET 0 0 0
                                }
                            }
                        }
                    }
                }
            }
        }
    }
}
MOTION
Frames: 10
Frame Time: 0.03333333333333333
45.56127533912659 -6.979718367755414 467.47777633666993 105.90908826924208 -82.48052639411084 103.89933762306978 -9.9087873851427 10.45923940042084 -21.26935084884787 3.6063421510991938 -1.4093931830548425 24.319987300188966 -89.41854758323244 3.1805546814635168e-15 59.016613084161555 0.0 0.0 0.0 7.802654051839968 8.740666811395766 13.97329163648669 -10.913117801973002 -6.145068410302445 -28.089806667390125 98.06664832361743 0.0 -64.32730764725403 0.0 0.0 0.0 0.015186797175931393 -0.8110907663924818 -0.06233515947710742 0.0 0.0 0.0 0.0 0.0 0.0 0.0 0.0 0.0 0.0 0.0 0.0 -169.94855806907069 6.692418611665239 171.18762618092254 45.67070490120532 -8.292320754684779e-15 6.942826149847011e-15 8.179150504648418e-15 40.08349984534172 -1.3140441791202389e-14 -1.5902773407317584e-15 0.0 0.0 162.8548671365485 -1.817377338478735 -176.92165384436024 -58.968293041101944 3.987980287930191e-15 -1.3989098407231785e-15 180.0 -73.63270979723912 180.0 0.0 0.0 3.975693351829396e-16 -2.552626183017333 4.9932256623192945e-15 1.1124682578914358e-16 -3.975693351829397e-16 -1.2424041724466862e-17 -3.975693351829397e-16
46.27985451221467 -8.06654832959175 467.33328037261964 109.97687187088364 -82.16531340492904 108.02909189809735 -9.738409910362726 10.552789901732774 -21.163604177632493 3.0145654236448483 -1.1807785445704446 24.865054971866176 -88.22565425983676 6.3611093629270335e-15 58.1218871924437 0.0 0.0 0.0 9.16445797176325 10.24995932271184 14.856450813311628 -12.660321958616704 -6.74043864714179 -30.735624522064764 98.43993490632896 -6.3611093629270335e-15 -66.90568505922472 0.0 0.0 0.0 0.008169371866216812 -0.41421758649628404 -0.10407610581444852 7.951386703658792e-16 0.0 0.0 7.951386703658792e-16 0.0 0.0 7.951386703658792e-16 0.0 0.0 7.951386703658792e-16 0.0 0.0 -169.56438269110677 6.397026953039827 171.6679617310931 46.54015268407641 -1.3696057400446723e-14 5.8899764069418176e-15 1.1963624715998973e-14 32.84101736299699 -6.8415365471505005e-15 0.0 0.0 0.0 163.4342999759709 -1.0815540392272727 -176.46147631103602 -57.05497436792319 5.583961558322245e-16 -3.316543527986958e-15 179.99999999999997 -70.1773936191622 179.99999999999997 -1.5902773407317588e-15 3.862168010793889e-32 -2.782985346280578e-15 -2.003477060347248 -1.8249606980410403e-14 4.761582208795475e-16 0.0 0.0 0.0
47.12340409755707 -9.193065458536148 467.2200416564941 113.75171394975011 -81.84541111914906 111.88442346630742 -9.574581024227525 10.667532957868668 -21.11601346834276 2.934083301054438 -1.1511513633647728 25.89956278288722 -87.7510732408368 6.3611093629270335e-15 57.64930769640145 0.0 0.0 0.0 10.812972352567135 11.968054045389342 15.751784094449516 -14.300025172670473 -7.148515423363534 -33.12302593317323 98.53255863937862 -3.180554681463517e-14 -67.43404854933713 6.3611093629270335e-15 -4.4139062980501586e-32 -7.951386703658792e-16 0.0008157086987083713 -0.04622728318096937 -0.13640066012747842 -7.951386703658792e-16 0.0 0.0 -7.951386703658792e-16 0.0 0.0 -7.951386703658792e-16 0.0 0.0 -7.951386703658792e-16 0.0 0.0 -169.13372608879033 5.802789854444234 172.14794039392774 47.152202541751265 -8.470315807784338e-15 1.9612759421506164e-15 3.86961508735923e-15 18.931060170096966 -3.86961508735923e-15 3.1805546814635164e-15 3.975693351829396e-16 3.1805546814635164e-15 164.02907875668393 -0.6158221739732417 -176.17876852319128 -55.417962494319404 1.327010574218818e-14 3.3770699135034144e-15 -180.0 -66.35741443322839 -180.0 -1.5902773407317584e-15 -3.310429723537619e-32 2.3854160110976376e-15 -1.4712383158926414 -2.2609892310965315e-15 -2.903038239230217e-17 0.0 0.0 0.0
47.939955067634585 -10.161353114247323 467.1697191238403 116.95269281849194 -81.62946118240261 115.12511879696171 -9.602777472140243 10.881146088710855 -20.994033260661645 3.5340212273125764 -1.3900940169982783 27.06363884317539 -87.67485004786175 0.0 57.57276569218498 0.0 0.0 0.0 12.47078159973904 13.603380658648474 16.49650782601007 -16.086511052971844 -7.589147134835979 -35.21041306923383 98.7142292841561 -3.1805546814635168e-15 -67.19268086880412 0.0 0.0 0.0 -0.0037896618579017394 0.24665943068132437 -0.14535293795672466 0.0 0.0 0.0 0.0 0.0 0.0 0.0 0.0 0.0 0.0 0.0 0.0 -168.88727281505717 5.539832673559582 172.11415370243347 47.62032567110296 -1.2708692558270997e-14 1.2560776788897756e-14 6.891252899800201e-16 23.007604035608104 -3.3860089094223276e-15 -3.1805546814635164e-15 3.9756933518293955e-16 1.1034765745125397e-32 164.49216783446641 -0.472837741140054 -175.96001089896055 -54.385143925273766 5.956959908263062e-15 -4.091042110285662e-15 -180.0 -62.513675205908484 -180.0 0.0 0.0 3.1805546814635168e-15 -0.9526604649268193 -4.870056054679553e-15 -4.0488294198225237e-17 0.0 0.0 0.0
48.77778525352478 -11.073881739377976 467.1563592910767 120.08372849143959 -81.4503263069561 118.30551474088115 -9.796645418494325 11.220533132361291 -20.868704689695985 4.549519003173418 -1.791574738755999 28.354468498236226 -87.7436875160861 9.54166404439055e-15 57.779201400163004 0.0 0.0 0.0 14.291752642111511 15.304680813889652 17.08555925418989 -16.231315151189627 -7.260610018523003 -35.26398291806805 97.48074158791493 -6.3611093629270335e-15 -64.96956313922384 0.0 0.0 0.0 -0.00613624348104005 0.4898767736842582 -0.12748137129867 0.0 0.0 0.0 0.0 0.0 0.0 0.0 0.0 0.0 0.0 0.0 0.0 -168.70825620065995 5.3121278826669585 172.10896680802512 48.31945908819877 3.659588683598611e-15 1.84429712801211e-15 9.225374759786524e-16 29.30318373056779 -3.528647132718275e-15 0.0 0.0 0.0 165.16192836153112 -0.656699311928688 -175.83646072209362 -53.36738328775249 -3.174849359431483e-15 -1.5956507770681628e-15 180.0 -59.14312244607968 -180.0 0.0 0.0 1.5902773407317584e-15 -0.39228683105624357 -7.531647199275108e-15 7.693597764644239e-16 0.0 0.0 0.0
49.57237637042999 -11.879935365915298 467.1681718826294 123.12900012168237 -81.34695303655651 121.39465836489465 -10.11770277503389 11.642815308296653 -20.72530693818011 4.916187017997924 -1.9386571404579467 28.872655876818968 -86.98045445532078 -9.54166404439055e-15 58.63198617852496 0.0 0.0 0.0 16.000609142143364 16.880337994796403 17.535904452627786 -19.74704786394559 -8.372313757849073 -37.541078441788294 98.93851209632139 1.2722218725854067e-14 -66.34824273809345 0.0 0.0 0.0 -0.007847556894720309 0.6901163047040355 -0.10656722702434082 -7.951386703658792e-16 0.0 0.0 -7.951386703658792e-16 0.0 0.0 -7.951386703658792e-16 0.0 0.0 -7.951386703658792e-16 0.0 0.0 -168.51558667135555 5.019608911439609 172.17572583748023 49.09857224321633 8.915689222969223e-15 -5.757436058887229e-16 -3.771771591646821e-15 36.872442052378844 1.257350252269378e-15 0.0 0.0 0.0 165.81457707908265 -0.6489149135015861 -175.66448331074832 -52.587679422879496 -3.36941942345549e-15 -1.6648200645997893e-15 180.0 -57.526947801410586 180.0 0.0 0.0 1.5902773407317584e-15 0.198450442457545 -2.9334464759806324e-15 -7.900596950724624e-16 0.0 0.0 0.0
50.23548359870911 -12.52562427520752 467.196185874939 126.05041121528444 -81.34287922771706 124.38153069602156 -10.591155667042075 12.17864621737114 -20.56306943633553 5.579464861201815 -2.2046115839514404 28.97619798562589 -85.95385694039118 -6.3611093629270335e-15 59.71845251828231 0.0 0.0 0.0 17.39824987696645 18.151161657567094 17.84904630188076 -22.372498181335747 -9.087287405295642 -39.41327540264676 100.03989798911125 -2.5444437451708134e-14 -67.27912195900063 6.3611093629270335e-15 -8.827812596100317e-32 -1.5902773407317584e-15 -0.009079238327557124 0.8382282644160642 -0.08687253216316297 0.0 0.0 0.0 0.0 0.0 0.0 0.0 0.0 0.0 0.0 0.0 0.0 -168.25828064002795 4.7382410140412485 172.2513238222919 49.73134464396842 4.359108142872999e-15 -9.031319220107961e-15 5.584733147829605e-15 42.50540261905679 -5.584733147829605e-15 1.5902773407317584e-15 0.0 0.0 166.6219771878446 -0.6408040075785136 -175.553258401822 -51.86152570197038 -5.72602040438863e-15 7.524031048222598e-16 -180.0 -57.33311551897304 180.0 0.0 0.0 1.5902773407317584e-15 0.7649858838187339 9.218433542364262e-15 -6.154097519500205e-17 7.951386703658792e-16 0.0 0.0
50.75560584068298 -13.00018774867058 467.2289903640747 128.53360396990112 -81.34766568881795 126.92410136620049 -11.067681819487966 12.6787604717219 -20.420834004549828 6.666454485523185 -2.6358998759861922 28.733469004700765 -84.30743322035443 0.0 61.960162725012474 0.0 0.0 0.0 18.590396692035142 19.190050643060037 18.02187987916639 -25.676416116668936 -10.035905636245605 -42.18879192906499 111.72150817584661 9.54166404439055e-15 -58.760191335996836 0.0 0.0 0.0 -0.010662276607953141 0.9481096602320144 -0.07351334894537193 0.0 0.0 0.0 0.0 0.0 0.0 0.0 0.0 0.0 0.0 0.0 0.0 -168.0939183678238 4.594338235148531 172.38800712322023 50.32443373852442 1.974783921368989e-14 -7.519723025155244e-15 4.817117526774059e-15 48.05426123853246 4.817117526774059e-15 1.5902773407317584e-15 -3.975693351829396e-16 5.517382872562698e-33 167.3675271362488 -0.4330985629913519 -175.44422859687927 -51.2401981464693 -1.173167121537953e-14 -9.153297743362155e-15 180.0 -58.522583939899334 180.0 1.5902773407317584e-15 -7.724336021587778e-32 -5.565970692561154e-15 1.2728356160600882 -5.554560030029293e-16 -7.890176952163067e-16 0.0 0.0 0.0
51.20755090713501 -13.363118559122086 467.25092697143555 130.70014768199994 -81.35357432656465 129.12492168500756 -11.443161475059835 13.079966376018517 -20.299931522797873 7.8718952526144195 -3.117372663989468 28.400673281443837 -81.70806225248279 9.54166404439055e-15 62.059334573662646 0.0 0.0 0.0 19.679339923496777 20.08842941292563 18.14405020497237 -27.57486895415817 -10.425018889738446 -43.94148786475294 115.10735889904058 1.90833280887811e-14 -56.6720727518141 0.0 0.0 0.0 -0.011876842218606047 1.0401491737933908 -0.06918241294792879 -7.951386703658792e-16 0.0 0.0 -7.951386703658792e-16 0.0 0.0 -7.951386703658792e-16 0.0 0.0 -7.951386703658792e-16 0.0 0.0 -167.96908605307897 4.53632880460858 172.5583035942018 50.83329812733536 1.3824920473673128e-14 -6.569478585427423e-15 -2.3649467598209977e-15 53.967674851905606 -2.3649467598209977e-15 0.0 3.9756933518293955e-16 0.0 168.15354403330298 -0.37235918482725056 -175.39039506429827 -50.67561802371789 1.227948330610732e-14 1.2852581832082627e-14 -180.0 -60.298675253683015 -180.0 2.2069531490250793e-31 6.3611093629270335e-15 -3.975693351829396e-15 1.700636198838714 -2.4099986680674438e-15 3.576905608972803e-17 7.951386703658792e-16 0.0 0.0
51.61418151855469 -13.647279077768328 467.26110305786136 132.61812620535343 -81.37090109234416 131.04469205365928 -11.734469655706924 13.400837431659987 -20.141107102236656 9.21078701893735 -3.6650400984341753 27.823047245590764 -72.43459404600007 3.1805546814635168e-15 48.819903726802885 0.0 0.0 0.0 20.6011395333438 20.84211982806174 18.28174955607749 -30.342648801609105 -11.076400005871099 -47.04023689398055 118.69977357014956 0.0 -56.94743134796836 0.0 0.0 0.0 -0.013585791460582261 1.1353821356995135 -0.08562421125040069 0.0 0.0 0.0 0.0 0.0 0.0 0.0 0.0 0.0 0.0 0.0 0.0 -167.8453576269275 4.442175919306557 172.69596975774024 51.01280420994241 -3.522511470302595e-15 -1.8433802020655186e-15 -7.964406852604262e-15 57.19535729405657 7.964406852604262e-15 1.5902773407317584e-15 0.0 0.0 168.7348109104913 -0.0708749572303799 -175.29992842989418 -50.317597361857295 -2.330959411538155e-15 -1.1636545592283947e-14 180.0 -62.49587071708095 180.0 1.6552148617688094e-31 3.975693351829396e-15 -4.770832022195275e-15 2.056670247253175 -1.0931395844693266e-14 1.9621594408317324e-16 7.951386703658792e-16 0.0 0.0
